<svg width="32" height="32" viewBox="0 0 32 32" fill="none" xmlns="http://www.w3.org/2000/svg">
<path d="M21.3251 6.66406H29.322" stroke="#9B8579" stroke-width="2.66564" stroke-linecap="round" stroke-linejoin="round"/>
<path d="M25.3235 2.66602V10.6629" stroke="#9B8579" stroke-width="2.66564" stroke-linecap="round" stroke-linejoin="round"/>
<path d="M27.9892 15.327V25.3231C27.9892 26.0301 27.7083 26.7081 27.2084 27.208C26.7085 27.7079 26.0305 27.9888 25.3235 27.9888H6.66409C5.95712 27.9888 5.2791 27.7079 4.7792 27.208C4.27929 26.7081 3.99845 26.0301 3.99845 25.3231V6.66368C3.99845 5.95671 4.27929 5.2787 4.7792 4.77879C5.2791 4.27889 5.95712 3.99805 6.66409 3.99805H16.6602" stroke="#9B8579" stroke-width="2.66564" stroke-linecap="round" stroke-linejoin="round"/>
<path d="M27.9892 19.9922L23.8761 15.8791C23.3762 15.3794 22.6983 15.0986 21.9915 15.0986C21.2847 15.0986 20.6068 15.3794 20.1069 15.8791L7.9969 27.9891" stroke="#9B8579" stroke-width="2.66564" stroke-linecap="round" stroke-linejoin="round"/>
<path d="M11.9954 14.6613C13.4676 14.6613 14.661 13.4679 14.661 11.9957C14.661 10.5235 13.4676 9.33008 11.9954 9.33008C10.5232 9.33008 9.32973 10.5235 9.32973 11.9957C9.32973 13.4679 10.5232 14.6613 11.9954 14.6613Z" stroke="#9B8579" stroke-width="2.66564" stroke-linecap="round" stroke-linejoin="round"/>
</svg>
