<svg width="20" height="20" viewBox="0 0 20 20" fill="none" xmlns="http://www.w3.org/2000/svg">
<path fill-rule="evenodd" clip-rule="evenodd" d="M17.9921 9.99647C17.9921 12.1173 17.1496 14.1512 15.65 15.6508C14.1503 17.1505 12.1164 17.9929 9.99561 17.9929C7.87482 17.9929 5.84088 17.1505 4.34126 15.6508C2.84163 14.1512 1.99915 12.1173 1.99915 9.99647C1.99915 7.87567 2.84163 5.84174 4.34126 4.34211C5.84088 2.84248 7.87482 2 9.99561 2C12.1164 2 14.1503 2.84248 15.65 4.34211C17.1496 5.84174 17.9921 7.87567 17.9921 9.99647ZM9.99561 4.99867C10.1944 4.99867 10.3851 5.07766 10.5257 5.21825C10.6663 5.35884 10.7453 5.54952 10.7453 5.74834V10.2464C10.7453 10.4452 10.6663 10.6359 10.5257 10.7765C10.3851 10.917 10.1944 10.996 9.99561 10.996C9.79679 10.996 9.60611 10.917 9.46552 10.7765C9.32493 10.6359 9.24594 10.4452 9.24594 10.2464V5.74834C9.24594 5.54952 9.32493 5.35884 9.46552 5.21825C9.60611 5.07766 9.79679 4.99867 9.99561 4.99867ZM9.99561 14.9943C10.2607 14.9943 10.515 14.8889 10.7024 14.7015C10.8899 14.514 10.9952 14.2598 10.9952 13.9947C10.9952 13.7296 10.8899 13.4754 10.7024 13.2879C10.515 13.1005 10.2607 12.9951 9.99561 12.9951C9.73051 12.9951 9.47627 13.1005 9.28882 13.2879C9.10136 13.4754 8.99605 13.7296 8.99605 13.9947C8.99605 14.2598 9.10136 14.514 9.28882 14.7015C9.47627 14.8889 9.73051 14.9943 9.99561 14.9943Z" fill="#1E40AF"/>
</svg>
