<svg width="11" height="14" viewBox="0 0 11 14" fill="none" xmlns="http://www.w3.org/2000/svg">
<path d="M1.33282 13.9946C0.966293 13.9946 0.652525 13.8641 0.391515 13.6031C0.130505 13.3421 0 13.0283 0 12.6618V5.99768C0 5.63115 0.130505 5.31739 0.391515 5.05638C0.652525 4.79537 0.966293 4.66486 1.33282 4.66486H1.99923V3.33204C1.99923 2.41018 2.3241 1.62437 2.97385 0.974623C3.6236 0.324874 4.40941 0 5.33127 0C6.25314 0 7.03894 0.324874 7.68869 0.974623C8.33844 1.62437 8.66331 2.41018 8.66331 3.33204V4.66486H9.32972C9.69625 4.66486 10.01 4.79537 10.271 5.05638C10.532 5.31739 10.6625 5.63115 10.6625 5.99768V12.6618C10.6625 13.0283 10.532 13.3421 10.271 13.6031C10.01 13.8641 9.69625 13.9946 9.32972 13.9946H1.33282ZM1.33282 12.6618H9.32972V5.99768H1.33282V12.6618ZM5.33127 10.6625C5.6978 10.6625 6.01156 10.532 6.27257 10.271C6.53358 10.01 6.66409 9.69625 6.66409 9.32972C6.66409 8.9632 6.53358 8.64943 6.27257 8.38842C6.01156 8.12741 5.6978 7.99691 5.33127 7.99691C4.96475 7.99691 4.65098 8.12741 4.38997 8.38842C4.12896 8.64943 3.99845 8.9632 3.99845 9.32972C3.99845 9.69625 4.12896 10.01 4.38997 10.271C4.65098 10.532 4.96475 10.6625 5.33127 10.6625ZM3.33204 4.66486H7.3305V3.33204C7.3305 2.7767 7.13613 2.30466 6.74739 1.91593C6.35865 1.52719 5.88661 1.33282 5.33127 1.33282C4.77593 1.33282 4.30389 1.52719 3.91515 1.91593C3.52641 2.30466 3.33204 2.7767 3.33204 3.33204V4.66486Z" fill="#1E3A8A"/>
</svg>
