<svg width="20" height="20" viewBox="0 0 20 20" fill="none" xmlns="http://www.w3.org/2000/svg">
<g clip-path="url(#clip0_350_1178)">
<path d="M17.6626 6.99811C18.0791 7.31471 18.3291 7.80626 18.3291 8.33114V16.6625C18.3291 17.1045 18.1535 17.5283 17.841 17.8408C17.5285 18.1533 17.1047 18.3288 16.6628 18.3288H3.33254C2.89062 18.3288 2.46679 18.1533 2.1543 17.8408C1.84181 17.5283 1.66626 17.1045 1.66626 16.6625V8.33114C1.66626 8.07246 1.72649 7.81733 1.84217 7.58596C1.95786 7.35458 2.12583 7.15332 2.33277 6.99811L8.9979 1.99927C9.28632 1.78295 9.63713 1.66602 9.99766 1.66602C10.3582 1.66602 10.709 1.78295 10.9974 1.99927L17.6626 6.99811Z" stroke="#1E3A8A" stroke-width="2.08285" stroke-linecap="round" stroke-linejoin="round"/>
<path d="M18.3291 8.33105L10.8558 13.08C10.5986 13.2411 10.3012 13.3266 9.99766 13.3266C9.69414 13.3266 9.39674 13.2411 9.13953 13.08L1.66626 8.33105" stroke="#1E3A8A" stroke-width="2.08285" stroke-linecap="round" stroke-linejoin="round"/>
</g>
<defs>
<clipPath id="clip0_350_1178">
<rect width="19.9954" height="19.9954" fill="white"/>
</clipPath>
</defs>
</svg>
