<svg width="32" height="32" viewBox="0 0 32 32" fill="none" xmlns="http://www.w3.org/2000/svg">
<g opacity="0.4">
<path d="M19.3803 28.914C19.431 29.0402 19.519 29.1479 19.6326 29.2227C19.7463 29.2974 19.8801 29.3356 20.0161 29.3322C20.152 29.3287 20.2837 29.2837 20.3934 29.2032C20.503 29.1227 20.5854 29.0107 20.6296 28.882L29.2958 3.55001C29.3384 3.43188 29.3466 3.30403 29.3192 3.18144C29.2919 3.05884 29.2302 2.94657 29.1414 2.85775C29.0526 2.76894 28.9403 2.70725 28.8177 2.67991C28.6951 2.65258 28.5673 2.66072 28.4491 2.70339L3.11717 11.3696C2.98851 11.4137 2.87642 11.4961 2.79595 11.6058C2.71548 11.7155 2.67049 11.8471 2.66701 11.9831C2.66352 12.1191 2.70172 12.2529 2.77647 12.3665C2.85121 12.4801 2.95894 12.5682 3.08517 12.6189L13.6579 16.8586C13.9922 16.9924 14.2958 17.1926 14.5506 17.4469C14.8054 17.7013 15.0061 18.0046 15.1405 18.3386L19.3803 28.914Z" stroke="#E84855" stroke-width="2.66652" stroke-linecap="round" stroke-linejoin="round"/>
<path d="M29.1371 2.86328L14.5512 17.4478" stroke="#E84855" stroke-width="2.66652" stroke-linecap="round" stroke-linejoin="round"/>
</g>
</svg>
