<svg width="20" height="20" viewBox="0 0 20 20" fill="none" xmlns="http://www.w3.org/2000/svg">
<path d="M18.3252 9.99609H13.3274L11.6615 12.495H8.32962L6.66369 9.99609H1.66589" stroke="#1E3A8A" stroke-width="1.66593" stroke-linecap="round" stroke-linejoin="round"/>
<path d="M4.53962 4.25662L1.66589 9.99575V14.9935C1.66589 15.4354 1.84141 15.8591 2.15383 16.1715C2.46626 16.484 2.88999 16.6595 3.33182 16.6595H16.6593C17.1011 16.6595 17.5248 16.484 17.8373 16.1715C18.1497 15.8591 18.3252 15.4354 18.3252 14.9935V9.99575L15.4515 4.25662C15.3135 3.97907 15.1009 3.74549 14.8375 3.58215C14.5741 3.41882 14.2704 3.3322 13.9605 3.33203H6.03063C5.7207 3.3322 5.41696 3.41882 5.15356 3.58215C4.89016 3.74549 4.67754 3.97907 4.53962 4.25662Z" stroke="#1E3A8A" stroke-width="1.66593" stroke-linecap="round" stroke-linejoin="round"/>
</svg>
