<svg width="20" height="20" viewBox="0 0 20 20" fill="none" xmlns="http://www.w3.org/2000/svg">
<path d="M14.9965 6.66486C16.3769 6.66486 17.4959 5.54583 17.4959 4.16544C17.4959 2.78504 16.3769 1.66602 14.9965 1.66602C13.6161 1.66602 12.4971 2.78504 12.4971 4.16544C12.4971 5.54583 13.6161 6.66486 14.9965 6.66486Z" stroke="#1E3A8A" stroke-width="1.66628" stroke-linecap="round" stroke-linejoin="round"/>
<path d="M4.99893 12.4969C6.37933 12.4969 7.49835 11.3779 7.49835 9.99747C7.49835 8.61708 6.37933 7.49805 4.99893 7.49805C3.61854 7.49805 2.49951 8.61708 2.49951 9.99747C2.49951 11.3779 3.61854 12.4969 4.99893 12.4969Z" stroke="#1E3A8A" stroke-width="1.66628" stroke-linecap="round" stroke-linejoin="round"/>
<path d="M14.9965 18.3289C16.3769 18.3289 17.4959 17.2099 17.4959 15.8295C17.4959 14.4491 16.3769 13.3301 14.9965 13.3301C13.6161 13.3301 12.4971 14.4491 12.4971 15.8295C12.4971 17.2099 13.6161 18.3289 14.9965 18.3289Z" stroke="#1E3A8A" stroke-width="1.66628" stroke-linecap="round" stroke-linejoin="round"/>
<path d="M7.15674 11.2559L12.8471 14.5718" stroke="#1E3A8A" stroke-width="1.66628" stroke-linecap="round" stroke-linejoin="round"/>
<path d="M12.8388 5.42383L7.15674 8.73973" stroke="#1E3A8A" stroke-width="1.66628" stroke-linecap="round" stroke-linejoin="round"/>
</svg>
