<svg width="20" height="20" viewBox="0 0 20 20" fill="none" xmlns="http://www.w3.org/2000/svg">
<path fill-rule="evenodd" clip-rule="evenodd" d="M9.99558 17.9929C12.1164 17.9929 14.1503 17.1505 15.6499 15.6508C17.1496 14.1512 17.992 12.1173 17.992 9.99647C17.992 7.87567 17.1496 5.84174 15.6499 4.34211C14.1503 2.84248 12.1164 2 9.99558 2C7.87479 2 5.84085 2.84248 4.34123 4.34211C2.8416 5.84174 1.99911 7.87567 1.99911 9.99647C1.99911 12.1173 2.8416 14.1512 4.34123 15.6508C5.84085 17.1505 7.87479 17.9929 9.99558 17.9929ZM13.8509 8.18827C13.9088 8.10859 13.9504 8.01829 13.9734 7.92252C13.9964 7.82676 14.0003 7.72741 13.9849 7.63013C13.9695 7.53286 13.935 7.43957 13.8836 7.3556C13.8321 7.27163 13.7646 7.19862 13.685 7.14073C13.6053 7.08284 13.515 7.04121 13.4192 7.01822C13.3234 6.99523 13.2241 6.99133 13.1268 7.00674C13.0295 7.02215 12.9363 7.05656 12.8523 7.10802C12.7683 7.15948 12.6953 7.22698 12.6374 7.30666L9.15595 12.0945L7.27678 10.2154C7.20759 10.1438 7.12485 10.0867 7.03336 10.0475C6.94188 10.0082 6.8435 9.98761 6.74396 9.98679C6.64442 9.98597 6.54572 10.005 6.4536 10.0427C6.36149 10.0805 6.27781 10.1362 6.20746 10.2066C6.1371 10.277 6.08148 10.3607 6.04383 10.4529C6.00618 10.545 5.98725 10.6438 5.98817 10.7433C5.98908 10.8428 6.0098 10.9412 6.04914 11.0326C6.08847 11.1241 6.14562 11.2068 6.21725 11.2759L8.71615 13.7748C8.79274 13.8514 8.88503 13.9106 8.98667 13.9481C9.08831 13.9856 9.19688 14.0007 9.3049 13.9922C9.41292 13.9838 9.51782 13.952 9.61238 13.8991C9.70694 13.8462 9.78891 13.7735 9.85265 13.6858L13.8509 8.18827Z" fill="#1E40AF"/>
</svg>
